# Blender 4.4.3
# www.blender.org
mtllib cloud.mtl
o Icosphere.002
v -2.081635 -2.263807 -0.582547
v -0.158057 -4.016007 -0.664335
v -0.726812 1.074935 0.370461
v 1.057118 -0.544990 -0.747432
v -1.166743 -5.072917 0.732273
v 2.975821 -1.033071 0.648137
v 2.733309 -3.300713 0.178070
v -2.846082 -1.206420 1.325846
v 1.661147 -2.837349 1.948792
v 0.158056 0.016007 1.824335
v 1.958968 1.621802 -1.338907
v -3.129889 -0.830574 -1.197895
v 2.911119 -1.237261 -1.128172
v -0.000000 -3.967020 -0.198646
v -3.045738 -2.396770 0.735476
v -3.068403 2.829760 -0.331552
v 3.068404 2.829760 -0.331552
v -0.000002 3.967019 0.198648
v 4.463347 0.781352 0.332152
v -4.463347 0.781352 0.332152
v 3.068403 -2.829759 0.331552
v 1.958968 -1.621801 1.338907
v -0.000001 2.707199 1.245845
v 0.000000 0.405413 0.236832
v 0.000001 -6.246708 -1.441665
v -1.935652 -1.967433 -1.543063
v -0.000000 -7.545414 -0.236832
v -4.461058 -4.374181 -0.396218
v -3.051401 -6.415861 0.394934
v -3.051404 -0.724140 -0.394931
v 3.011337 -1.201483 -0.890597
v 4.461058 -4.374180 -0.396218
v 3.051402 -6.415860 0.394933
v 1.935653 -5.172568 1.543062
v -3.094078 -2.750427 1.388131
v 2.864722 -2.332646 1.311909
vn -0.0487 -0.0069 -0.9988
vn -0.1495 -0.0356 0.9881
vn -0.2175 -0.2397 0.9462
vn 0.4207 -0.7822 0.4594
vn 0.4562 0.2772 0.8456
vn -0.3696 0.6295 0.6835
vn 0.8140 -0.2001 0.5453
vn 0.4477 0.8302 0.3322
vn 0.4788 0.7906 -0.3817
vn -0.7191 0.4443 -0.5342
vn -0.9142 -0.3725 -0.1598
vn -0.4819 -0.4953 -0.7228
vn 0.3293 -0.8520 -0.4069
vn 0.3069 -0.1300 -0.9428
vn 0.6018 0.0999 -0.7924
vn -0.2423 0.3560 -0.9025
vn -0.5115 -0.6784 -0.5273
vn -0.6335 0.1883 -0.7505
vn 0.5810 0.1356 -0.8025
vn 0.3498 -0.6140 -0.7075
vn 0.0814 -0.5931 0.8010
vn 0.2546 0.1358 0.9575
vn -0.1150 -0.0307 0.9929
vn -0.2125 0.0292 0.9767
vn -0.0185 -0.5374 0.8431
vn 0.3777 0.5080 0.7741
vn -0.3777 0.5080 0.7741
vn 0.5272 -0.2038 0.8250
vn 0.8365 -0.3231 -0.4426
vn 0.5808 0.1342 -0.8029
vn 0.3468 0.5995 0.7213
vn -0.3468 0.5995 0.7213
vn -0.8554 -0.4200 -0.3030
vn 0.0814 0.5931 -0.8010
vn -0.0457 0.5207 -0.8525
vn -0.1377 0.2303 -0.9633
vn -0.0101 -0.3127 -0.9498
vn 0.0067 -0.0713 -0.9974
vn 0.1256 0.0333 -0.9915
vn 0.4044 -0.5596 -0.7234
vn -0.3742 -0.6307 -0.6798
vn -0.5695 0.2202 -0.7919
vn 0.3742 -0.6307 -0.6798
vn 0.0775 -0.6379 0.7662
vn 0.0072 0.0788 0.9969
vn -0.0128 0.3538 0.9352
vn -0.1546 -0.2601 0.9531
vn -0.0443 -0.5761 0.8162
vn 0.6310 -0.1444 0.7622
vn 0.8558 0.4347 0.2802
vn -0.8700 0.3359 0.3609
vn 0.6305 -0.1394 0.7636
vn 0.5442 0.7310 0.4117
vn -0.3721 0.6176 0.6929
vn -0.6824 -0.1986 0.7035
vn -0.4044 -0.5596 -0.7234
vn 0.2437 -0.0396 -0.9690
vn 0.0145 0.5924 -0.8055
vn -0.0775 0.6380 -0.7662
vn -0.2854 -0.1515 -0.9464
vt 0.181819 0.000000
vt 0.260997 0.100582
vt 0.152395 0.119978
vt 0.045455 0.393651
vt 0.097413 0.291392
vt 0.090910 0.472382
vt 0.219845 0.380785
vt 0.304886 0.263648
vt 0.294338 0.434952
vt 0.516031 0.194945
vt 0.490902 0.362352
vt 0.638083 0.229451
vt 0.814059 0.371800
vt 0.847594 0.205745
vt 0.930701 0.277491
vt 0.733139 0.103602
vt 0.978360 0.119978
vt 0.500000 0.078731
vt 0.583482 0.065866
vt 0.876251 0.056882
vt 0.189060 0.125715
vt 0.369108 0.210361
vt 0.238140 0.303435
vt 0.116397 0.270775
vt 0.045455 0.236191
vt 0.704502 0.087107
vt 0.702451 0.200454
vt 0.610877 0.270775
vt 0.493852 0.132428
vt 0.479368 0.271928
vt 0.477317 0.385274
vt 0.599833 0.409108
vt 0.691907 0.376177
vt 0.035366 0.376177
vt 0.217027 0.303435
vt 0.311561 0.405120
vt 0.812711 0.262021
vt 0.933913 0.200454
vt 0.818182 0.376177
vt 0.870258 0.067262
vt 0.965670 0.097999
vt 0.308094 0.096205
vt 0.363637 0.000000
vt 0.545455 0.000000
vt 0.600610 0.095532
vt 0.491272 0.093849
vt 0.363637 0.093849
vt 0.570372 0.200619
vt 0.478915 0.272713
vt 0.236002 0.093849
vt 0.358046 0.210148
vt 0.248359 0.272713
vt 0.146367 0.061405
vt 0.156902 0.200619
vt 0.476297 0.387246
vt 0.763999 0.378533
vt 0.872365 0.378533
vt 0.818182 0.472382
vt 0.823773 0.262235
vt 0.217573 0.376850
vt 0.311081 0.405951
vt 0.660474 0.343226
vt 0.692131 0.163229
vt 0.082876 0.350046
vt 0.933460 0.199669
vt 0.765626 0.066431
vt 0.930842 0.085136
s 0
usemtl cloud
f 4/1/1 2/2/1 1/3/1
f 10/4/2 8/5/2 9/6/2
f 8/7/3 5/8/3 9/9/3
f 5/8/4 7/10/4 9/11/4
f 6/12/5 10/13/5 9/11/5
f 3/14/6 8/15/6 10/13/6
f 7/10/7 6/12/7 9/11/7
f 6/12/8 3/14/8 10/13/8
f 6/12/9 4/16/9 3/14/9
f 3/14/10 1/17/10 8/15/10
f 8/5/11 1/3/11 5/8/11
f 1/3/12 2/2/12 5/8/12
f 2/2/13 7/10/13 5/8/13
f 2/18/14 4/19/14 7/10/14
f 4/19/15 6/12/15 7/10/15
f 4/20/16 1/17/16 3/14/16
f 12/21/17 14/22/17 15/23/17
f 12/21/18 20/24/18 16/25/18
f 11/26/19 17/27/19 19/28/19
f 13/29/20 21/30/20 14/22/20
f 14/22/21 21/30/21 22/31/21
f 22/32/22 19/28/22 23/33/22
f 23/34/23 15/35/23 22/6/23
f 23/34/24 20/24/24 15/35/24
f 15/23/25 14/22/25 22/36/25
f 17/27/26 23/33/26 19/28/26
f 16/25/27 20/24/27 23/34/27
f 21/30/28 19/28/28 22/31/28
f 21/30/29 13/29/29 19/28/29
f 13/29/30 11/26/30 19/28/30
f 17/27/31 18/37/31 23/33/31
f 18/37/32 16/38/32 23/39/32
f 20/24/33 12/21/33 15/23/33
f 11/26/34 18/37/34 17/27/34
f 11/40/35 16/38/35 18/37/35
f 11/40/36 12/41/36 16/38/36
f 14/22/37 12/42/37 13/29/37
f 12/42/38 11/43/38 13/29/38
f 26/44/39 31/45/39 25/46/39
f 25/47/40 32/48/40 33/49/40
f 25/50/41 27/51/41 29/52/41
f 26/53/42 28/54/42 30/25/42
f 25/47/43 33/49/43 27/51/43
f 27/51/44 33/49/44 34/55/44
f 36/56/45 35/57/45 34/58/45
f 36/56/46 24/59/46 35/57/46
f 35/60/47 29/52/47 34/61/47
f 29/52/48 27/51/48 34/61/48
f 32/48/49 36/62/49 34/55/49
f 32/48/50 31/63/50 36/62/50
f 30/25/51 28/54/51 35/64/51
f 33/49/52 32/48/52 34/55/52
f 31/63/53 24/59/53 36/62/53
f 24/59/54 30/65/54 35/57/54
f 28/54/55 29/52/55 35/64/55
f 28/54/56 25/50/56 29/52/56
f 25/46/57 31/45/57 32/48/57
f 26/66/58 24/59/58 31/63/58
f 26/67/59 30/65/59 24/59/59
f 26/53/60 25/50/60 28/54/60
